
<svg width="62px" height="62px" viewBox="0 0 62 62" version="1.1" xmlns="http://www.w3.org/2000/svg" xmlns:xlink="http://www.w3.org/1999/xlink">
    <!-- Generator: Sketch 48.2 (47327) - http://www.bohemiancoding.com/sketch -->
    <desc>Created with Sketch.</desc>
    <defs></defs>
    <g id="Page-1" stroke="none" stroke-width="1" fill="none" fill-rule="evenodd">
        <g id="Desktop" transform="translate(-706.000000, -769.000000)" stroke="#FFFFFF">
            <g id="Buttons" transform="translate(644.000000, 770.000000)">
                <g id="Microphone_primary" transform="translate(63.000000, 0.000000)">
                    <g transform="translate(0.336207, 0.000000)">
                        <path d="M59.1435839,30 C59.1435839,46.5684564 45.9037568,60 29.571792,60 C13.2398271,60 0,46.5684564 0,30 C0,13.4315436 13.2398271,0 29.571792,0 C45.9037568,0 59.1435839,13.4315436 59.1435839,30 Z" id="Stroke-1" stroke-width="2"></path>
                        <path d="M30.0178213,10.6849315 C30.2057839,10.7115893 30.3939485,10.7348139 30.5813047,10.7651069 C33.123852,11.1768894 35.1643574,13.2208573 35.5641315,15.7672846 C35.6170844,16.1041425 35.6461883,16.4482707 35.6463904,16.7893695 C35.6502305,20.2680126 35.6474009,23.7468577 35.6427524,27.2255008 C35.6411355,28.5103268 35.6417418,29.7951528 35.6199139,31.0795748 C35.596267,32.4655793 35.1293923,33.7003209 34.2504147,34.7688551 C33.2766474,35.9523006 32.0255848,36.6837749 30.5067261,36.9105683 C28.6661078,37.1854265 27.0229512,36.7110386 25.6027223,35.5051763 C24.6576547,34.7030183 24.0313149,33.691435 23.7036942,32.497286 C23.5761626,32.0323898 23.4991586,31.5577999 23.4989564,31.0747279 C23.4977438,26.2490573 23.4892552,21.4235886 23.5038071,16.5979179 C23.5080514,15.1810146 24.0133271,13.9272894 24.9252487,12.8432049 C25.7425826,11.8714063 26.7695049,11.2170781 27.9971228,10.8903179 C28.3176697,10.8048917 28.6511516,10.768944 28.9785703,10.7101757 C29.020205,10.7027034 29.0618397,10.6934135 29.1032723,10.6849315 L30.0178213,10.6849315 Z" id="Stroke-3" stroke-width="2"></path>
                        <path d="M41.3194902,31.2328767 C41.3194902,38.0419646 35.8785966,43.5616438 29.1666989,43.5616438 C22.4549989,43.5616438 17.0139077,38.0419646 17.0139077,31.2328767" id="Stroke-5" stroke-width="2"></path>
                        <path d="M29.5081967,51.0291075 L29.5081967,43.6165929" id="Stroke-7" stroke-width="2"></path>
                    </g>
                </g>
            </g>
        </g>
    </g>
</svg>
